# xmcd
#
# Track frame offsets: 
#        150
#        26455
#        61693
#        84970
#        103878
#        136778
#        161193
#        182746
#        215891
#        233939
#        250027
#        274739
#
# Disc length: 4018 seconds
#
# Revision: 0
# Processed by: cddbd v1.5.2PL0 Copyright (c) Steve Scherf et al.
# Submitted via: ExactAudioCopy v0.99pb5
#
DISCID=a20fb00c
DTITLE=Demetria Taylor - Bad Girl
DYEAR=2011
DGENRE=Blues
TTITLE0=I'm A Women - Hoochie Coochie Women
TTITLE1=All Your Love
TTITLE2=Voodoo Woman
TTITLE3=Bad Girl
TTITLE4=When You Leave, Don't Take Nothing
TTITLE5=Goin' Back To Mississippi
TTITLE6=Big Boss Man
TTITLE7=Cherry Red Wine
TTITLE8=I Can't Take It No More
TTITLE9=Trying To Make A Living
TTITLE10=Little Red Rooster
TTITLE11=Wang Dang Doodle
EXTD=
EXTT0=
EXTT1=
EXTT2=
EXTT3=
EXTT4=
EXTT5=
EXTT6=
EXTT7=
EXTT8=
EXTT9=
EXTT10=
EXTT11=
PLAYORDER=
